# xmcd CD database file
#
# Track frame offsets:
#	150
#	23065
#	46608
#
# Disc length: 923 seconds
#
# Revision: 1
# Processed by: cddbd v1.5.1PL0 Copyright (c) Steve Scherf et al.
# Submitted via: CDex 1.51
#
DISCID=15039903
DTITLE=シャ乱Q - NICE BOY!
DYEAR=1996
DGENRE=JPop
TTITLE0=NICE BOY!
TTITLE1=SWEET and SWEET
TTITLE2=NICE BOY! (オリジナル・カラオケ)
EXTD=YEAR: 1996
EXTT0=
EXTT1=
EXTT2=
PLAYORDER=
